<svg xmlns="http://www.w3.org/2000/svg" xmlns:xlink="http://www.w3.org/1999/xlink" width="500" zoomAndPan="magnify" viewBox="0 0 375 225" height="300" preserveAspectRatio="xMidYMid meet" version="1.0"><rect x="-37.5" width="450" fill="#ffffff" y="-22.5" height="270" fill-opacity="1"/><rect x="-37.5" width="450" fill="#ffffff" y="-22.5" height="270" fill-opacity="1"/><rect x="-37.5" width="450" fill="#ffffff" y="-22.5" height="270" fill-opacity="1"/><rect x="-37.5" width="450" fill="#ffffff" y="-22.5" height="270" fill-opacity="1"/><path fill="#2e2e2e" d="M 140.957031 176.289062 L 47.308594 176.289062 L 29.054688 215.890625 L 0.160156 215.890625 L 96.003906 9.070312 L 186.867188 215.890625 L 158.25 215.890625 Z M 129.632812 150.207031 L 95.078125 72.554688 L 59.25 150.207031 Z M 129.632812 150.207031 " fill-opacity="1" fill-rule="nonzero"/><path fill="#2e2e2e" d="M 168.9375 11.269531 L 195.328125 11.269531 L 195.328125 215.890625 L 168.9375 215.890625 Z M 168.9375 11.269531 " fill-opacity="1" fill-rule="nonzero"/><path fill="#2e2e2e" d="M 208.203125 11.269531 L 276.113281 118.125 L 343.0625 11.269531 L 374.492188 11.269531 L 288.980469 145.785156 L 288.980469 215.890625 L 262.902344 215.890625 L 262.902344 145.785156 L 177.082031 11.269531 Z M 208.203125 11.269531 " fill-opacity="1" fill-rule="nonzero"/></svg>