<svg xmlns="http://www.w3.org/2000/svg" xmlns:xlink="http://www.w3.org/1999/xlink" width="500" zoomAndPan="magnify" viewBox="0 0 375 374.999991" height="500" preserveAspectRatio="xMidYMid meet" version="1.0"><defs><g/><clipPath id="b2bc0a2b40"><path d="M 2.347656 4.148438 L 368.144531 4.148438 L 368.144531 369.949219 L 2.347656 369.949219 Z M 2.347656 4.148438 " clip-rule="nonzero"/></clipPath><clipPath id="fe87d696ba"><path d="M 185.246094 4.148438 C 84.234375 4.148438 2.347656 86.035156 2.347656 187.050781 C 2.347656 288.0625 84.234375 369.949219 185.246094 369.949219 C 286.257812 369.949219 368.144531 288.0625 368.144531 187.050781 C 368.144531 86.035156 286.257812 4.148438 185.246094 4.148438 Z M 185.246094 4.148438 " clip-rule="nonzero"/></clipPath></defs><rect x="-37.5" width="450" fill="#ffffff" y="-37.499999" height="449.999989" fill-opacity="1"/><rect x="-37.5" width="450" fill="#ffffff" y="-37.499999" height="449.999989" fill-opacity="1"/><g clip-path="url(#b2bc0a2b40)"><g clip-path="url(#fe87d696ba)"><path fill="#2e2e2e" d="M 2.347656 4.148438 L 368.144531 4.148438 L 368.144531 369.949219 L 2.347656 369.949219 Z M 2.347656 4.148438 " fill-opacity="1" fill-rule="nonzero"/></g></g><g fill="#ffffff" fill-opacity="1"><g transform="translate(-19.943038, 289.505835)"><g><path d="M 148.46875 -28.015625 L 65.671875 -28.015625 L 52.59375 0 L 14 0 L 108.9375 -204.796875 L 199.203125 0 L 160.921875 0 Z M 132.90625 -63.1875 L 108 -119.828125 L 81.859375 -63.1875 Z M 132.90625 -63.1875 "/></g></g></g><g fill="#ffffff" fill-opacity="1"><g transform="translate(131.00118, 289.505835)"><g><path d="M 28.953125 -204.796875 L 64.125 -204.796875 L 64.125 0 L 28.953125 0 Z M 28.953125 -204.796875 "/></g></g></g><g fill="#ffffff" fill-opacity="1"><g transform="translate(161.808011, 289.505835)"><g><path d="M 55.09375 -204.796875 L 116.09375 -105.515625 L 177.71875 -204.796875 L 219.75 -204.796875 L 133.53125 -68.46875 L 133.53125 0 L 98.671875 0 L 98.671875 -68.46875 L 13.390625 -204.796875 Z M 55.09375 -204.796875 "/></g></g></g></svg>
